<svg xmlns="http://www.w3.org/2000/svg" xmlns:xlink="http://www.w3.org/1999/xlink" width="1760" height="1360"><g transform="translate(0 0)"><path d="M0 0h1760v1360H0z" fill="#fff"/><path d="M160 145c0-2.76 2.24-5 5-5h150c2.76 0 5 2.24 5 5v110c0 2.76-2.24 5-5 5H165c-2.76 0-5-2.24-5-5z" stroke="#666" stroke-width="2" fill="#fcc438"/><use xlink:href="#a" transform="matrix(1,0,0,1,160,140) translate(49.48148148148148 62.97222222222222)"/><use xlink:href="#b" transform="matrix(1,0,0,1,160,140) translate(92.79012345679013 62.97222222222222)"/><path d="M240 650v558" fill="none"/><path d="M240 650v9.8m0 9.78v19.58m0 9.8v19.57m0 9.8v19.56m0 9.78v19.58m0 9.8v19.57m0 9.8V836m0 9.8v19.57m0 9.8v19.57m0 9.8v19.57m0 9.8v19.57m0 9.8v19.57m0 9.8v19.57m0 9.8v19.58m0 9.8v19.57m0 9.8v19.57m0 9.8v19.56m0 9.8v19.57m0 9.8v19.57m0 9.8v9.78" stroke="#999" stroke-width="2" fill="none"/><path d="M241 650h-1v-3h1zM241 1208h-2 2z" fill="#999"/><path d="M240 260v390" fill="none"/><path d="M240 260v10m0 10v20m0 10v20m0 10v20m0 10v20m0 10v20m0 10v20m0 10v20m0 10v20m0 10v20m0 10v20m0 10v20m0 10v20m0 10v10" stroke="#999" stroke-width="2" fill="none"/><path d="M241 653h-1v-3h1z" fill="#999"/><path d="M220 325c0-2.76 2.24-5 5-5h30c2.76 0 5 2.24 5 5v430c0 2.76-2.24 5-5 5h-30c-2.76 0-5-2.24-5-5z" stroke="#666" stroke-width="2" fill="#f2f2f2"/><path d="M580 145c0-2.76 2.24-5 5-5h150c2.76 0 5 2.24 5 5v110c0 2.76-2.24 5-5 5H585c-2.76 0-5-2.24-5-5z" stroke="#666" stroke-width="2" fill="#a3d977"/><use xlink:href="#a" transform="matrix(1,0,0,1,580,140) translate(31.28395061728395 51.72222222222222)"/><use xlink:href="#c" transform="matrix(1,0,0,1,580,140) translate(74.5925925925926 51.72222222222222)"/><use xlink:href="#d" transform="matrix(1,0,0,1,580,140) translate(41.20987654320987 73.05555555555556)"/><path d="M1000 145c0-2.76 2.24-5 5-5h150c2.76 0 5 2.24 5 5v110c0 2.76-2.24 5-5 5h-150c-2.76 0-5-2.24-5-5z" stroke="#666" stroke-width="2" fill="#83bbe5"/><use xlink:href="#e" transform="matrix(1,0,0,1,1000,140) translate(4.123456790123441 62.97222222222222)"/><use xlink:href="#f" transform="matrix(1,0,0,1,1000,140) translate(63.185185185185176 62.97222222222222)"/><path d="M660 260v940" fill="none"/><path d="M660 260v10.1m0 10.12v20.2m0 10.12v20.2m0 10.12v20.22m0 10.1v20.22m0 10.1v20.22m0 10.1v20.22m0 10.1v20.23m0 10.1v20.22m0 10.1V543m0 10.12v20.2m0 10.12v20.22m0 10.1v20.22m0 10.1v20.22m0 10.1v20.22m0 10.1v20.23m0 10.1v20.22m0 10.1v20.22m0 10.1v20.2m0 10.12v20.22m0 10.1v20.22m0 10.1v20.22m0 10.1v20.22m0 10.1v20.23m0 10.1v20.22m0 10.1v20.22m0 10.1v20.22m0 10.1v20.22m0 10.1v20.22m0 10.1v20.22m0 10.1v20.22m0 10.1V1200" stroke="#999" stroke-width="2" fill="none"/><path d="M200 1213c0-2.76 2.24-5 5-5h70c2.76 0 5 2.24 5 5v70c0 2.76-2.24 5-5 5h-70c-2.76 0-5-2.24-5-5z" fill="none"/><path d="M208 1216l64 64m0-64l-64 64" stroke="#666" stroke-width="8" fill="none"/><path d="M640 625c0-2.76 2.24-5 5-5h30c2.76 0 5 2.24 5 5v130c0 2.76-2.24 5-5 5h-30c-2.76 0-5-2.24-5-5z" stroke="#666" stroke-width="2" fill="#f2f2f2"/><path d="M680 650.5h35c2.76 0 5 2.24 5 5v39.23c0 2.76-2.24 5-5 5h-35" stroke="#999" stroke-width="2" fill="none"/><path d="M694.27 704.36L680 699.73l14.27-4.64z" fill="#999"/><path d="M695.27 705.74L680 700.78v-2.1l15.27-4.96zm-12.03-6l10.03 3.25v-6.53z" fill="#999"/><use xlink:href="#g" transform="matrix(1,0,0,1,727.9999999999999,653.5139363319984) translate(0 14.4)"/><use xlink:href="#h" transform="matrix(1,0,0,1,727.9999999999999,653.5139363319984) translate(47 14.4)"/><use xlink:href="#i" transform="matrix(1,0,0,1,727.9999999999999,653.5139363319984) translate(0 36)"/><use xlink:href="#j" transform="matrix(1,0,0,1,727.9999999999999,653.5139363319984) translate(90.7 36)"/><use xlink:href="#k" transform="matrix(1,0,0,1,727.9999999999999,653.5139363319984) translate(132.2 36)"/><use xlink:href="#l" transform="matrix(1,0,0,1,727.9999999999999,653.5139363319984) translate(169.1 36)"/><path d="M1080 260v940" fill="none"/><path d="M1080 260v10.1m0 10.12v20.2m0 10.12v20.2m0 10.12v20.22m0 10.1v20.22m0 10.1v20.22m0 10.1v20.22m0 10.1v20.23m0 10.1v20.22m0 10.1V543m0 10.12v20.2m0 10.12v20.22m0 10.1v20.22m0 10.1v20.22m0 10.1v20.22m0 10.1v20.23m0 10.1v20.22m0 10.1v20.22m0 10.1v20.2m0 10.12v20.22m0 10.1v20.22m0 10.1v20.22m0 10.1v20.22m0 10.1v20.23m0 10.1v20.22m0 10.1v20.22m0 10.1v20.22m0 10.1v20.22m0 10.1v20.22m0 10.1v20.22m0 10.1v20.22m0 10.1V1200" stroke="#999" stroke-width="2" fill="none"/><path d="M1060 945c0-2.76 2.24-5 5-5h30c2.76 0 5 2.24 5 5v170c0 2.76-2.24 5-5 5h-30c-2.76 0-5-2.24-5-5z" stroke="#666" stroke-width="2" fill="#f2f2f2"/><path d="M680 958.9h189.95c.03 0 .05.02.05.05 0 .03.02.05.05.05H1060" stroke="#999" stroke-width="2" fill="none"/><path d="M1060 959l-14.27 4.64v-9.28z" fill="#999"/><path d="M1060 957.95v2.1l-15.27 4.96v-12zm-13.27 4.3l10.03-3.25-10.03-3.26z" fill="#999"/><use xlink:href="#m" transform="matrix(1,0,0,1,767.1034639650093,890.1005896477868) translate(0 14.4)"/><use xlink:href="#n" transform="matrix(1,0,0,1,767.1034639650093,890.1005896477868) translate(37.95 14.4)"/><use xlink:href="#o" transform="matrix(1,0,0,1,767.1034639650093,890.1005896477868) translate(90.85000000000001 14.4)"/><use xlink:href="#p" transform="matrix(1,0,0,1,767.1034639650093,890.1005896477868) translate(125.80000000000001 14.4)"/><use xlink:href="#q" transform="matrix(1,0,0,1,767.1034639650093,890.1005896477868) translate(0 36)"/><use xlink:href="#j" transform="matrix(1,0,0,1,767.1034639650093,890.1005896477868) translate(39.85 36)"/><use xlink:href="#k" transform="matrix(1,0,0,1,767.1034639650093,890.1005896477868) translate(81.35 36)"/><use xlink:href="#r" transform="matrix(1,0,0,1,767.1034639650093,890.1005896477868) translate(118.25 36)"/><use xlink:href="#s" transform="matrix(1,0,0,1,767.1034639650093,890.1005896477868) translate(0 57.6)"/><use xlink:href="#t" transform="matrix(1,0,0,1,767.1034639650093,890.1005896477868) translate(20.950000000000003 57.6)"/><use xlink:href="#u" transform="matrix(1,0,0,1,767.1034639650093,890.1005896477868) translate(59.75000000000001 57.6)"/><path d="M1420 145c0-2.76 2.24-5 5-5h150c2.76 0 5 2.24 5 5v110c0 2.76-2.24 5-5 5h-150c-2.76 0-5-2.24-5-5z" stroke="#666" stroke-width="2" fill="#ff8f80"/><use xlink:href="#v" transform="matrix(1,0,0,1,1420,140) translate(52.938271604938265 51.72222222222222)"/><use xlink:href="#w" transform="matrix(1,0,0,1,1420,140) translate(14.469135802469125 73.05555555555556)"/><path d="M260 491.1h1240" stroke="#999" stroke-width="2" fill="none"/><path d="M1500 491.1l-14.27 4.63v-9.27z" stroke="#999" stroke-width="2" fill="#999"/><use xlink:href="#x" transform="matrix(1,0,0,1,309.9424297101308,465.49850576928344) translate(0 14.4)"/><use xlink:href="#y" transform="matrix(1,0,0,1,309.9424297101308,465.49850576928344) translate(76.85000000000001 14.4)"/><use xlink:href="#z" transform="matrix(1,0,0,1,309.9424297101308,465.49850576928344) translate(98.75000000000001 14.4)"/><use xlink:href="#A" transform="matrix(1,0,0,1,309.9424297101308,465.49850576928344) translate(158.55 14.4)"/><use xlink:href="#B" transform="matrix(1,0,0,1,309.9424297101308,465.49850576928344) translate(187.45000000000002 14.4)"/><use xlink:href="#C" transform="matrix(1,0,0,1,309.9424297101308,465.49850576928344) translate(225.3 14.4)"/><path d="M260 353.33h35c2.76 0 5 2.24 5 5V423c0 2.76-2.24 5-5 5h-35" stroke="#999" stroke-width="2" fill="none"/><path d="M274.27 432.64L260 428l14.27-4.64z" fill="#999"/><path d="M275.27 434L260 429.06v-2.1l15.27-4.96zm-12.03-6l10.03 3.26v-6.52z" fill="#999"/><use xlink:href="#D" transform="matrix(1,0,0,1,308,369.0666666666666) translate(0 14.4)"/><use xlink:href="#E" transform="matrix(1,0,0,1,308,369.0666666666666) translate(37.95 14.4)"/><use xlink:href="#A" transform="matrix(1,0,0,1,308,369.0666666666666) translate(80.9 14.4)"/><use xlink:href="#F" transform="matrix(1,0,0,1,308,369.0666666666666) translate(109.80000000000001 14.4)"/><use xlink:href="#G" transform="matrix(1,0,0,1,308,369.0666666666666) translate(151.3 14.4)"/><use xlink:href="#H" transform="matrix(1,0,0,1,308,369.0666666666666) translate(173.20000000000002 14.4)"/><use xlink:href="#I" transform="matrix(1,0,0,1,308,369.0666666666666) translate(205.10000000000002 14.4)"/><use xlink:href="#J" transform="matrix(1,0,0,1,308,369.0666666666666) translate(0 36)"/><path d="M260 646.67h380" stroke="#999" stroke-width="2" fill="none"/><path d="M640 646.67l-14.27 4.63v-9.27z" fill="#999"/><path d="M640 645.62v2.1l-15.27 4.96v-12.03zm-13.27 4.3l10.03-3.25-10.03-3.26z" fill="#999"/><use xlink:href="#K" transform="matrix(1,0,0,1,277.72499999999997,621.0666666666667) translate(0 14.4)"/><use xlink:href="#L" transform="matrix(1,0,0,1,277.72499999999997,621.0666666666667) translate(32.95 14.4)"/><use xlink:href="#M" transform="matrix(1,0,0,1,277.72499999999997,621.0666666666667) translate(139.55 14.4)"/><use xlink:href="#B" transform="matrix(1,0,0,1,277.72499999999997,621.0666666666667) translate(180.45000000000002 14.4)"/><use xlink:href="#F" transform="matrix(1,0,0,1,277.72499999999997,621.0666666666667) translate(218.3 14.4)"/><use xlink:href="#k" transform="matrix(1,0,0,1,277.72499999999997,621.0666666666667) translate(259.8 14.4)"/><use xlink:href="#N" transform="matrix(1,0,0,1,277.72499999999997,621.0666666666667) translate(296.70000000000005 14.4)"/><path d="M1500 261v939" fill="none"/><path d="M1500 261v10.1m0 10.1v20.2m0 10.08v20.2m0 10.1v20.2m0 10.08v20.2m0 10.1v20.2m0 10.1v20.18m0 10.1v20.2m0 10.1v20.18m0 10.1v20.2m0 10.1V574m0 10.1v20.2m0 10.1v20.18m0 10.1v20.2m0 10.1v20.18m0 10.1v20.2m0 10.1v20.18m0 10.1v20.2m0 10.1v20.18m0 10.1v20.2m0 10.1v20.18m0 10.1v20.2m0 10.1v20.18m0 10.1v20.2m0 10.1v20.18m0 10.1v20.2m0 10.1v20.2m0 10.08v20.2m0 10.1v20.2m0 10.08v20.2m0 10.1v20.2m0 10.08v10.1" stroke="#999" stroke-width="2" fill="none"/><path d="M1501 261h-2v-1h2zM1501 1200h-2 2z" fill="#999"/><path d="M1500 556.73H880.3c-.17 0-.3.14-.3.3 0 .17-.13.3-.3.3H260" stroke="#999" stroke-width="2" fill="none"/><path d="M274.27 561.97L260 557.33l14.27-4.63z" fill="#999"/><path d="M275.27 563.35L260 558.38v-2.1l15.27-4.96zm-12.03-6.02l10.03 3.26v-6.53z" fill="#999"/><use xlink:href="#O" transform="matrix(1,0,0,1,1286.5062373136732,531.1345829126724) translate(0 14.4)"/><use xlink:href="#P" transform="matrix(1,0,0,1,1286.5062373136732,531.1345829126724) translate(48.900000000000006 14.4)"/><use xlink:href="#Q" transform="matrix(1,0,0,1,1286.5062373136732,531.1345829126724) translate(94.85000000000001 14.4)"/><use xlink:href="#N" transform="matrix(1,0,0,1,1286.5062373136732,531.1345829126724) translate(109.85000000000001 14.4)"/><path d="M1100 972h379" stroke="#999" stroke-width="2" fill="none"/><path d="M1479 972l-14.27 4.64v-9.28z" fill="#999"/><path d="M1480 971.27v1.46l-16.27 5.28v-12zm-14.27 4l10.03-3.27-10.03-3.26z" fill="#999"/><use xlink:href="#R" transform="matrix(1,0,0,1,1145.925,924.8000000000001) translate(0 14.4)"/><use xlink:href="#y" transform="matrix(1,0,0,1,1145.925,924.8000000000001) translate(76.75000000000001 14.4)"/><use xlink:href="#H" transform="matrix(1,0,0,1,1145.925,924.8000000000001) translate(98.65000000000002 14.4)"/><use xlink:href="#S" transform="matrix(1,0,0,1,1145.925,924.8000000000001) translate(130.55 14.4)"/><use xlink:href="#T" transform="matrix(1,0,0,1,1145.925,924.8000000000001) translate(177.4 14.4)"/><use xlink:href="#H" transform="matrix(1,0,0,1,1145.925,924.8000000000001) translate(225.25 14.4)"/><use xlink:href="#U" transform="matrix(1,0,0,1,1145.925,924.8000000000001) translate(257.15 14.4)"/><use xlink:href="#V" transform="matrix(1,0,0,1,1145.925,924.8000000000001) translate(0 36)"/><use xlink:href="#W" transform="matrix(1,0,0,1,1145.925,924.8000000000001) translate(119.60000000000001 36)"/><use xlink:href="#H" transform="matrix(1,0,0,1,1145.925,924.8000000000001) translate(160.5 36)"/><use xlink:href="#l" transform="matrix(1,0,0,1,1145.925,924.8000000000001) translate(192.4 36)"/><path d="M1101 1050h378" stroke="#999" stroke-width="2" fill="none"/><path d="M1115.27 1054.63L1101 1050l14.27-4.64z" fill="#999"/><path d="M1116.27 1056l-16.27-5.28v-1.45l16.27-5.28zm-12.03-6l10.03 3.26v-6.52zM1480 1051h-1v-2h1z" fill="#999"/><g><use xlink:href="#X" transform="matrix(1,0,0,1,1233.015,1024.3980000000006) translate(0 14.4)"/><use xlink:href="#Y" transform="matrix(1,0,0,1,1233.015,1024.3980000000006) translate(34.95 14.4)"/><use xlink:href="#Z" transform="matrix(1,0,0,1,1233.015,1024.3980000000006) translate(49.95 14.4)"/></g><path d="M680 1086h379" stroke="#999" stroke-width="2" fill="none"/><path d="M680 1086l14.27-4.64v9.28z" stroke="#999" stroke-width="2" fill="#999"/><path d="M1060 1087h-1v-2h1z" fill="#999"/><g><use xlink:href="#X" transform="matrix(1,0,0,1,812.495,1060.4) translate(0 14.4)"/><use xlink:href="#Y" transform="matrix(1,0,0,1,812.495,1060.4) translate(34.95 14.4)"/><use xlink:href="#Z" transform="matrix(1,0,0,1,812.495,1060.4) translate(49.95 14.4)"/></g><path d="M1480 965c0-2.76 2.24-5 5-5h30c2.76 0 5 2.24 5 5v90c0 2.76-2.24 5-5 5h-30c-2.76 0-5-2.24-5-5z" stroke="#666" stroke-width="2" fill="#f2f2f2"/><path d="M620 1205c0-2.76 2.24-5 5-5h70c2.76 0 5 2.24 5 5v70c0 2.76-2.24 5-5 5h-70c-2.76 0-5-2.24-5-5z" fill="none"/><path d="M628 1208l64 64m0-64l-64 64" stroke="#666" stroke-width="8" fill="none"/><path d="M1040 1205c0-2.76 2.24-5 5-5h70c2.76 0 5 2.24 5 5v70c0 2.76-2.24 5-5 5h-70c-2.76 0-5-2.24-5-5z" fill="none"/><path d="M1048 1208l64 64m0-64l-64 64" stroke="#666" stroke-width="8" fill="none"/><path d="M1460 1205c0-2.76 2.24-5 5-5h70c2.76 0 5 2.24 5 5v70c0 2.76-2.24 5-5 5h-70c-2.76 0-5-2.24-5-5z" fill="none"/><path d="M1468 1208l64 64m0-64l-64 64" stroke="#666" stroke-width="8" fill="none"/><path d="M261 935.3h379" stroke="#999" stroke-width="2" fill="none"/><path d="M261 936.3h-1v-2h1zM640 935.3l-14.27 4.65v-9.27z" fill="#999"/><path d="M640 934.26v2.1l-15.27 4.97V929.3zm-13.27 4.3l10.03-3.25-10.03-3.24z" fill="#999"/><g><use xlink:href="#aa" transform="matrix(1,0,0,1,422.6,909.7140992932896) translate(0 14.4)"/></g><path d="M261 740h188.57c.24 0 .43-.2.43-.43 0-.24.2-.43.43-.43H639" stroke="#999" stroke-width="2" fill="none"/><path d="M275.27 744.64L261 740l14.27-4.64z" fill="#999"/><path d="M276.27 746L260 740.74v-1.46l16.27-5.28zm-12.03-6l10.03 3.26v-6.52zM640 740.14h-1v-2h1z" fill="#999"/><g><use xlink:href="#ab" transform="matrix(1,0,0,1,408.0696459555029,714.4000000000001) translate(0 14.4)"/></g><path d="M220 805c0-2.76 2.24-5 5-5h30c2.76 0 5 2.24 5 5v330c0 2.76-2.24 5-5 5h-30c-2.76 0-5-2.24-5-5zM640 905c0-2.76 2.24-5 5-5h30c2.76 0 5 2.24 5 5v230c0 2.76-2.24 5-5 5h-30c-2.76 0-5-2.24-5-5z" stroke="#666" stroke-width="2" fill="#f2f2f2"/><path d="M219 874.37h-35c-2.76 0-5-2.24-5-5v-406.1c0-2.75 2.24-5 5-5h35" stroke="#ce6925" stroke-width="2" fill="none"/><path d="M220 875.37h-1v-2h1zM219 458.28l-14.27 4.64v-9.27z" fill="#ce6925"/><path d="M220 457.55V459l-16.27 5.3v-12.03zm-14.27 4l10.03-3.27-10.03-3.26z" fill="#ce6925"/><g><use xlink:href="#ac" transform="matrix(1,0,0,1,70.23237538027547,875.582257413852) translate(0 14.4)"/><use xlink:href="#ad" transform="matrix(1,0,0,1,70.23237538027547,875.582257413852) translate(21.9 14.4)"/><use xlink:href="#ae" transform="matrix(1,0,0,1,70.23237538027547,875.582257413852) translate(74.75 14.4)"/></g><path d="M261 826.3h35c2.76 0 5 2.25 5 5v19.3c0 2.77-2.24 5-5 5h-35" stroke="#999" stroke-width="2" fill="none"/><path d="M261 827.3h-1v-2h1zM275.27 860.25L261 855.6l14.27-4.62z" fill="#999"/><path d="M276.27 861.62L260 856.34v-1.45l16.27-5.3zm-12.03-6l10.03 3.25v-6.52z" fill="#999"/><g><use xlink:href="#af" transform="matrix(1,0,0,1,309.00000000000006,819.3622383996684) translate(0 14.4)"/><use xlink:href="#ag" transform="matrix(1,0,0,1,309.00000000000006,819.3622383996684) translate(58.900000000000006 14.4)"/><use xlink:href="#ah" transform="matrix(1,0,0,1,309.00000000000006,819.3622383996684) translate(106.75 14.4)"/><use xlink:href="#ai" transform="matrix(1,0,0,1,309.00000000000006,819.3622383996684) translate(146.35 14.4)"/><use xlink:href="#A" transform="matrix(1,0,0,1,309.00000000000006,819.3622383996684) translate(199.2 14.4)"/><use xlink:href="#aj" transform="matrix(1,0,0,1,309.00000000000006,819.3622383996684) translate(228.1 14.4)"/><use xlink:href="#ak" transform="matrix(1,0,0,1,309.00000000000006,819.3622383996684) translate(0 36)"/><use xlink:href="#al" transform="matrix(1,0,0,1,309.00000000000006,819.3622383996684) translate(42.85 36)"/><use xlink:href="#am" transform="matrix(1,0,0,1,309.00000000000006,819.3622383996684) translate(110.80000000000001 36)"/><use xlink:href="#an" transform="matrix(1,0,0,1,309.00000000000006,819.3622383996684) translate(167.75 36)"/></g><path d="M1480 485c0-2.76 2.24-5 5-5h30c2.76 0 5 2.24 5 5v90c0 2.76-2.24 5-5 5h-30c-2.76 0-5-2.24-5-5z" stroke="#666" stroke-width="2" fill="#f2f2f2"/><path d="M0 625c0-2.76 2.24-5 5-5h230c2.76 0 5 2.24 5 5v50c0 2.76-2.24 5-5 5H5c-2.76 0-5-2.24-5-5z" fill="none"/><g><use xlink:href="#ao" transform="matrix(1,0,0,1,0,620) translate(79.125 33.6)"/><use xlink:href="#ap" transform="matrix(1,0,0,1,0,620) translate(123.025 33.6)"/></g><defs><path fill="#333" d="M199 0l-22-63H83L61 0H9l90-248h61L250 0h-51zm-33-102l-36-108c-10 38-24 72-36 108h72" id="aq"/><path fill="#333" d="M24 0v-248h52v208h133V0H24" id="ar"/><path fill="#333" d="M230 0l2-204L168 0h-37L68-204 70 0H24v-248h70l56 185 57-185h69V0h-46" id="as"/><g id="a"><use transform="matrix(0.04938271604938272,0,0,0.04938271604938272,0,0)" xlink:href="#aq"/><use transform="matrix(0.04938271604938272,0,0,0.04938271604938272,12.790123456790125,0)" xlink:href="#ar"/><use transform="matrix(0.04938271604938272,0,0,0.04938271604938272,23.60493827160494,0)" xlink:href="#as"/></g><path fill="#333" d="M238-95c0 69-44 99-111 99C63 4 22-25 22-93v-155h51v151c-1 38 19 59 55 60 90 1 49-130 58-211h52v153" id="at"/><path fill="#333" d="M24 0v-248h52V0H24" id="au"/><g id="b"><use transform="matrix(0.04938271604938272,0,0,0.04938271604938272,0,0)" xlink:href="#at"/><use transform="matrix(0.04938271604938272,0,0,0.04938271604938272,12.790123456790125,0)" xlink:href="#au"/></g><path fill="#333" d="M182-130c37 4 62 22 62 59C244 23 116-4 24 0v-248c84 5 203-23 205 63 0 31-19 50-47 55zM76-148c40-3 101 13 101-30 0-44-60-28-101-31v61zm0 110c48-3 116 14 116-37 0-48-69-32-116-35v72" id="av"/><path fill="#333" d="M24-248c120-7 223 5 221 122C244-46 201 0 124 0H24v-248zM76-40c74 7 117-18 117-86 0-67-45-88-117-82v168" id="aw"/><g id="c"><use transform="matrix(0.04938271604938272,0,0,0.04938271604938272,0,0)" xlink:href="#av"/><use transform="matrix(0.04938271604938272,0,0,0.04938271604938272,12.790123456790125,0)" xlink:href="#at"/><use transform="matrix(0.04938271604938272,0,0,0.04938271604938272,25.58024691358025,0)" xlink:href="#au"/><use transform="matrix(0.04938271604938272,0,0,0.04938271604938272,30.518518518518523,0)" xlink:href="#ar"/><use transform="matrix(0.04938271604938272,0,0,0.04938271604938272,41.333333333333336,0)" xlink:href="#aw"/></g><path fill="#333" d="M169-182c-1-43-94-46-97-3 18 66 151 10 154 114 3 95-165 93-204 36-6-8-10-19-12-30l50-8c3 46 112 56 116 5-17-69-150-10-154-114-4-87 153-88 188-35 5 8 8 18 10 28" id="ax"/><path fill="#333" d="M24 0v-248h195v40H76v63h132v40H76v65h150V0H24" id="ay"/><path fill="#333" d="M240-174c0 40-23 61-54 70L253 0h-59l-57-94H76V0H24v-248c93 4 217-23 216 74zM76-134c48-2 112 12 112-38 0-48-66-32-112-35v73" id="az"/><path fill="#333" d="M147 0H94L2-248h55l64 206c17-72 42-137 63-206h54" id="aA"/><path fill="#333" d="M67-125c0 53 21 87 73 88 37 1 54-22 65-47l45 17C233-25 199 4 140 4 58 4 20-42 15-125 8-235 124-281 211-232c18 10 29 29 36 50l-46 12c-8-25-30-41-62-41-52 0-71 34-72 86" id="aB"/><g id="d"><use transform="matrix(0.04938271604938272,0,0,0.04938271604938272,0,0)" xlink:href="#ax"/><use transform="matrix(0.04938271604938272,0,0,0.04938271604938272,11.851851851851853,0)" xlink:href="#ay"/><use transform="matrix(0.04938271604938272,0,0,0.04938271604938272,23.703703703703706,0)" xlink:href="#az"/><use transform="matrix(0.04938271604938272,0,0,0.04938271604938272,36.14814814814815,0)" xlink:href="#aA"/><use transform="matrix(0.04938271604938272,0,0,0.04938271604938272,48.00000000000001,0)" xlink:href="#au"/><use transform="matrix(0.04938271604938272,0,0,0.04938271604938272,52.93827160493828,0)" xlink:href="#aB"/><use transform="matrix(0.04938271604938272,0,0,0.04938271604938272,65.7283950617284,0)" xlink:href="#ay"/></g><g id="e"><use transform="matrix(0.04938271604938272,0,0,0.04938271604938272,0,0)" xlink:href="#av"/><use transform="matrix(0.04938271604938272,0,0,0.04938271604938272,12.790123456790125,0)" xlink:href="#at"/><use transform="matrix(0.04938271604938272,0,0,0.04938271604938272,25.58024691358025,0)" xlink:href="#au"/><use transform="matrix(0.04938271604938272,0,0,0.04938271604938272,30.518518518518523,0)" xlink:href="#ar"/><use transform="matrix(0.04938271604938272,0,0,0.04938271604938272,41.333333333333336,0)" xlink:href="#aw"/></g><path fill="#333" d="M24-248c93 1 206-16 204 79-1 75-69 88-152 82V0H24v-248zm52 121c47 0 100 7 100-41 0-47-54-39-100-39v80" id="aC"/><path fill="#333" d="M140-251c80 0 125 45 125 126S219 4 139 4C58 4 15-44 15-125s44-126 125-126zm-1 214c52 0 73-35 73-88 0-50-21-86-72-86-52 0-73 35-73 86s22 88 72 88" id="aD"/><g id="f"><use transform="matrix(0.04938271604938272,0,0,0.04938271604938272,0,0)" xlink:href="#aC"/><use transform="matrix(0.04938271604938272,0,0,0.04938271604938272,11.851851851851853,0)" xlink:href="#az"/><use transform="matrix(0.04938271604938272,0,0,0.04938271604938272,24.641975308641978,0)" xlink:href="#aD"/><use transform="matrix(0.04938271604938272,0,0,0.04938271604938272,38.46913580246914,0)" xlink:href="#aA"/><use transform="matrix(0.04938271604938272,0,0,0.04938271604938272,50.320987654320994,0)" xlink:href="#au"/><use transform="matrix(0.04938271604938272,0,0,0.04938271604938272,55.25925925925927,0)" xlink:href="#aw"/><use transform="matrix(0.04938271604938272,0,0,0.04938271604938272,68.0493827160494,0)" xlink:href="#ay"/><use transform="matrix(0.04938271604938272,0,0,0.04938271604938272,79.90123456790124,0)" xlink:href="#az"/></g><path fill="#333" d="M133-34C117-15 103 5 69 4 32 3 11-16 11-54c-1-60 55-63 116-61 1-26-3-47-28-47-18 1-26 9-28 27l-52-2c7-38 36-58 82-57s74 22 75 68l1 82c-1 14 12 18 25 15v27c-30 8-71 5-69-32zm-48 3c29 0 43-24 42-57-32 0-66-3-65 30 0 17 8 27 23 27" id="aE"/><path fill="#333" d="M128 0H69L1-190h53L99-40l48-150h52" id="aF"/><path fill="#333" d="M185-48c-13 30-37 53-82 52C43 2 14-33 14-96s30-98 90-98c62 0 83 45 84 108H66c0 31 8 55 39 56 18 0 30-7 34-22zm-45-69c5-46-57-63-70-21-2 6-4 13-4 21h74" id="aG"/><g id="g"><use transform="matrix(0.05,0,0,0.05,0,0)" xlink:href="#ax"/><use transform="matrix(0.05,0,0,0.05,12,0)" xlink:href="#aE"/><use transform="matrix(0.05,0,0,0.05,22,0)" xlink:href="#aF"/><use transform="matrix(0.05,0,0,0.05,32,0)" xlink:href="#aG"/></g><path fill="#333" d="M85 4C-2 5 27-109 22-190h50c7 57-23 150 33 157 60-5 35-97 40-157h50l1 190h-47c-2-12 1-28-3-38-12 25-28 42-61 42" id="aH"/><path fill="#333" d="M25-224v-37h50v37H25zM25 0v-190h50V0H25" id="aI"/><path fill="#333" d="M25 0v-261h50V0H25" id="aJ"/><path fill="#333" d="M88-194c31-1 46 15 58 34l-1-101h50l1 261h-48c-2-10 0-23-3-31C134-8 116 4 84 4 32 4 16-41 15-95c0-56 19-97 73-99zm17 164c33 0 40-30 41-66 1-37-9-64-41-64s-38 30-39 65c0 43 13 65 39 65" id="aK"/><path fill="#333" d="M110-194c64 0 96 36 96 99 0 64-35 99-97 99-61 0-95-36-95-99 0-62 34-99 96-99zm-1 164c35 0 45-28 45-65 0-40-10-65-43-65-34 0-45 26-45 65 0 36 10 65 43 65" id="aL"/><path fill="#333" d="M135-194c87-1 58 113 63 194h-50c-7-57 23-157-34-157-59 0-34 97-39 157H25l-1-190h47c2 12-1 28 3 38 12-26 28-41 61-42" id="aM"/><path fill="#333" d="M121-226c-27-7-43 5-38 36h38v33H83V0H34v-157H6v-33h28c-9-59 32-81 87-68v32" id="aN"/><path fill="#333" d="M195-6C206 82 75 100 31 46c-4-6-6-13-8-21l49-6c3 16 16 24 34 25 40 0 42-37 40-79-11 22-30 35-61 35-53 0-70-43-70-97 0-56 18-96 73-97 30 0 46 14 59 34l2-30h47zm-90-29c32 0 41-27 41-63 0-35-9-62-40-62-32 0-39 29-40 63 0 36 9 62 39 62" id="aO"/><g id="h"><use transform="matrix(0.05,0,0,0.05,0,0)" xlink:href="#av"/><use transform="matrix(0.05,0,0,0.05,12.950000000000001,0)" xlink:href="#aH"/><use transform="matrix(0.05,0,0,0.05,23.900000000000002,0)" xlink:href="#aI"/><use transform="matrix(0.05,0,0,0.05,28.900000000000002,0)" xlink:href="#aJ"/><use transform="matrix(0.05,0,0,0.05,33.900000000000006,0)" xlink:href="#aK"/><use transform="matrix(0.05,0,0,0.05,44.85000000000001,0)" xlink:href="#aB"/><use transform="matrix(0.05,0,0,0.05,57.80000000000001,0)" xlink:href="#aL"/><use transform="matrix(0.05,0,0,0.05,68.75000000000001,0)" xlink:href="#aM"/><use transform="matrix(0.05,0,0,0.05,79.70000000000002,0)" xlink:href="#aN"/><use transform="matrix(0.05,0,0,0.05,85.65000000000002,0)" xlink:href="#aI"/><use transform="matrix(0.05,0,0,0.05,90.65000000000002,0)" xlink:href="#aO"/></g><path fill="#333" d="M67-93c0 74 22 123 53 168H70C40 30 18-18 18-93s22-123 52-168h50c-32 44-53 94-53 168" id="aP"/><path fill="#333" d="M190-63c-7 42-38 67-86 67-59 0-84-38-90-98-12-110 154-137 174-36l-49 2c-2-19-15-32-35-32-30 0-35 28-38 64-6 74 65 87 74 30" id="aQ"/><g id="i"><use transform="matrix(0.05,0,0,0.05,0,0)" xlink:href="#aP"/><use transform="matrix(0.05,0,0,0.05,5.95,0)" xlink:href="#aI"/><use transform="matrix(0.05,0,0,0.05,10.95,0)" xlink:href="#aM"/><use transform="matrix(0.05,0,0,0.05,21.9,0)" xlink:href="#aQ"/><use transform="matrix(0.05,0,0,0.05,31.899999999999995,0)" xlink:href="#aJ"/><use transform="matrix(0.05,0,0,0.05,36.9,0)" xlink:href="#aH"/><use transform="matrix(0.05,0,0,0.05,47.85,0)" xlink:href="#aK"/><use transform="matrix(0.05,0,0,0.05,58.800000000000004,0)" xlink:href="#aI"/><use transform="matrix(0.05,0,0,0.05,63.800000000000004,0)" xlink:href="#aM"/><use transform="matrix(0.05,0,0,0.05,74.75,0)" xlink:href="#aO"/></g><g id="j"><use transform="matrix(0.05,0,0,0.05,0,0)" xlink:href="#at"/><use transform="matrix(0.05,0,0,0.05,12.950000000000001,0)" xlink:href="#az"/><use transform="matrix(0.05,0,0,0.05,25.900000000000002,0)" xlink:href="#ar"/></g><g id="k"><use transform="matrix(0.05,0,0,0.05,0,0)" xlink:href="#aE"/><use transform="matrix(0.05,0,0,0.05,10,0)" xlink:href="#aM"/><use transform="matrix(0.05,0,0,0.05,20.950000000000003,0)" xlink:href="#aK"/></g><path fill="#333" d="M115-3C79 11 28 4 28-45v-112H4v-33h27l15-45h31v45h36v33H77v99c-1 23 16 31 38 25v30" id="aR"/><path fill="#333" d="M147 0L96-86 75-71V0H25v-261h50v150l67-79h53l-66 74L201 0h-54" id="aS"/><path fill="#333" d="M102-93c0 74-22 123-52 168H0C30 29 54-18 53-93c0-74-22-123-53-168h50c30 45 52 94 52 168" id="aT"/><g id="l"><use transform="matrix(0.05,0,0,0.05,0,0)" xlink:href="#aR"/><use transform="matrix(0.05,0,0,0.05,5.95,0)" xlink:href="#aL"/><use transform="matrix(0.05,0,0,0.05,16.900000000000002,0)" xlink:href="#aS"/><use transform="matrix(0.05,0,0,0.05,26.900000000000002,0)" xlink:href="#aG"/><use transform="matrix(0.05,0,0,0.05,36.900000000000006,0)" xlink:href="#aM"/><use transform="matrix(0.05,0,0,0.05,47.85000000000001,0)" xlink:href="#aT"/></g><g id="m"><use transform="matrix(0.05,0,0,0.05,0,0)" xlink:href="#aB"/><use transform="matrix(0.05,0,0,0.05,12.950000000000001,0)" xlink:href="#aE"/><use transform="matrix(0.05,0,0,0.05,22.950000000000003,0)" xlink:href="#aJ"/><use transform="matrix(0.05,0,0,0.05,27.950000000000003,0)" xlink:href="#aJ"/></g><path fill="#333" d="M136-208V0H84v-208H4v-40h212v40h-80" id="aU"/><g id="n"><use transform="matrix(0.05,0,0,0.05,0,0)" xlink:href="#az"/><use transform="matrix(0.05,0,0,0.05,12.950000000000001,0)" xlink:href="#ay"/><use transform="matrix(0.05,0,0,0.05,24.950000000000003,0)" xlink:href="#ax"/><use transform="matrix(0.05,0,0,0.05,36.95,0)" xlink:href="#aU"/></g><g id="o"><use transform="matrix(0.05,0,0,0.05,0,0)" xlink:href="#aq"/><use transform="matrix(0.05,0,0,0.05,12.950000000000001,0)" xlink:href="#aC"/><use transform="matrix(0.05,0,0,0.05,24.950000000000003,0)" xlink:href="#au"/></g><path fill="#333" d="M220-157c-53 9-28 100-34 157h-49v-107c1-27-5-49-29-50C55-147 81-57 75 0H25l-1-190h47c2 12-1 28 3 38 10-53 101-56 108 0 13-22 24-43 59-42 82 1 51 116 57 194h-49v-107c-1-25-5-48-29-50" id="aV"/><path fill="#333" d="M114-157C55-157 80-60 75 0H25v-261h50l-1 109c12-26 28-41 61-42 86-1 58 113 63 194h-50c-7-57 23-157-34-157" id="aW"/><g id="p"><use transform="matrix(0.05,0,0,0.05,0,0)" xlink:href="#aV"/><use transform="matrix(0.05,0,0,0.05,16,0)" xlink:href="#aG"/><use transform="matrix(0.05,0,0,0.05,26,0)" xlink:href="#aR"/><use transform="matrix(0.05,0,0,0.05,31.950000000000003,0)" xlink:href="#aW"/><use transform="matrix(0.05,0,0,0.05,42.9,0)" xlink:href="#aL"/><use transform="matrix(0.05,0,0,0.05,53.85,0)" xlink:href="#aK"/></g><g id="q"><use transform="matrix(0.05,0,0,0.05,0,0)" xlink:href="#aP"/><use transform="matrix(0.05,0,0,0.05,5.95,0)" xlink:href="#aC"/><use transform="matrix(0.05,0,0,0.05,17.95,0)" xlink:href="#aH"/><use transform="matrix(0.05,0,0,0.05,28.899999999999995,0)" xlink:href="#aR"/></g><g id="r"><use transform="matrix(0.05,0,0,0.05,0,0)" xlink:href="#aR"/><use transform="matrix(0.05,0,0,0.05,5.95,0)" xlink:href="#aL"/><use transform="matrix(0.05,0,0,0.05,16.900000000000002,0)" xlink:href="#aS"/><use transform="matrix(0.05,0,0,0.05,26.900000000000002,0)" xlink:href="#aG"/><use transform="matrix(0.05,0,0,0.05,36.900000000000006,0)" xlink:href="#aM"/></g><g id="s"><use transform="matrix(0.05,0,0,0.05,0,0)" xlink:href="#aI"/><use transform="matrix(0.05,0,0,0.05,5,0)" xlink:href="#aM"/></g><path fill="#333" d="M135-194c53 0 70 44 70 98 0 56-19 98-73 100-31 1-45-17-59-34 3 33 2 69 2 105H25l-1-265h48c2 10 0 23 3 31 11-24 29-35 60-35zM114-30c33 0 39-31 40-66 0-38-9-64-40-64-56 0-55 130 0 130" id="aX"/><g id="t"><use transform="matrix(0.05,0,0,0.05,0,0)" xlink:href="#aW"/><use transform="matrix(0.05,0,0,0.05,10.950000000000001,0)" xlink:href="#aR"/><use transform="matrix(0.05,0,0,0.05,16.900000000000002,0)" xlink:href="#aR"/><use transform="matrix(0.05,0,0,0.05,22.85,0)" xlink:href="#aX"/></g><path fill="#333" d="M135-150c-39-12-60 13-60 57V0H25l-1-190h47c2 13-1 29 3 40 6-28 27-53 61-41v41" id="aY"/><g id="u"><use transform="matrix(0.05,0,0,0.05,0,0)" xlink:href="#aW"/><use transform="matrix(0.05,0,0,0.05,10.950000000000001,0)" xlink:href="#aG"/><use transform="matrix(0.05,0,0,0.05,20.950000000000003,0)" xlink:href="#aE"/><use transform="matrix(0.05,0,0,0.05,30.950000000000003,0)" xlink:href="#aK"/><use transform="matrix(0.05,0,0,0.05,41.900000000000006,0)" xlink:href="#aG"/><use transform="matrix(0.05,0,0,0.05,51.900000000000006,0)" xlink:href="#aY"/><use transform="matrix(0.05,0,0,0.05,58.900000000000006,0)" xlink:href="#aT"/></g><g id="v"><use transform="matrix(0.04938271604938272,0,0,0.04938271604938272,0,0)" xlink:href="#av"/><use transform="matrix(0.04938271604938272,0,0,0.04938271604938272,12.790123456790125,0)" xlink:href="#at"/><use transform="matrix(0.04938271604938272,0,0,0.04938271604938272,25.58024691358025,0)" xlink:href="#au"/><use transform="matrix(0.04938271604938272,0,0,0.04938271604938272,30.518518518518523,0)" xlink:href="#ar"/><use transform="matrix(0.04938271604938272,0,0,0.04938271604938272,41.333333333333336,0)" xlink:href="#aw"/></g><path fill="#333" d="M175 0L67-191c6 58 2 128 3 191H24v-248h59L193-55c-6-58-2-129-3-193h46V0h-61" id="aZ"/><g id="w"><use transform="matrix(0.04938271604938272,0,0,0.04938271604938272,0,0)" xlink:href="#ay"/><use transform="matrix(0.04938271604938272,0,0,0.04938271604938272,11.851851851851853,0)" xlink:href="#aZ"/><use transform="matrix(0.04938271604938272,0,0,0.04938271604938272,24.641975308641978,0)" xlink:href="#aA"/><use transform="matrix(0.04938271604938272,0,0,0.04938271604938272,36.49382716049383,0)" xlink:href="#au"/><use transform="matrix(0.04938271604938272,0,0,0.04938271604938272,41.4320987654321,0)" xlink:href="#az"/><use transform="matrix(0.04938271604938272,0,0,0.04938271604938272,54.22222222222223,0)" xlink:href="#aD"/><use transform="matrix(0.04938271604938272,0,0,0.04938271604938272,68.0493827160494,0)" xlink:href="#aZ"/><use transform="matrix(0.04938271604938272,0,0,0.04938271604938272,80.83950617283952,0)" xlink:href="#as"/><use transform="matrix(0.04938271604938272,0,0,0.04938271604938272,95.60493827160495,0)" xlink:href="#ay"/><use transform="matrix(0.04938271604938272,0,0,0.04938271604938272,107.4567901234568,0)" xlink:href="#aZ"/><use transform="matrix(0.04938271604938272,0,0,0.04938271604938272,120.24691358024693,0)" xlink:href="#aU"/></g><g id="x"><use transform="matrix(0.05,0,0,0.05,0,0)" xlink:href="#az"/><use transform="matrix(0.05,0,0,0.05,12.950000000000001,0)" xlink:href="#aG"/><use transform="matrix(0.05,0,0,0.05,22.950000000000003,0)" xlink:href="#aK"/><use transform="matrix(0.05,0,0,0.05,33.900000000000006,0)" xlink:href="#aI"/><use transform="matrix(0.05,0,0,0.05,38.900000000000006,0)" xlink:href="#aY"/><use transform="matrix(0.05,0,0,0.05,45.900000000000006,0)" xlink:href="#aG"/><use transform="matrix(0.05,0,0,0.05,55.900000000000006,0)" xlink:href="#aQ"/><use transform="matrix(0.05,0,0,0.05,65.9,0)" xlink:href="#aR"/></g><g id="y"><use transform="matrix(0.05,0,0,0.05,0,0)" xlink:href="#aR"/><use transform="matrix(0.05,0,0,0.05,5.95,0)" xlink:href="#aL"/></g><g id="z"><use transform="matrix(0.05,0,0,0.05,0,0)" xlink:href="#aD"/><use transform="matrix(0.05,0,0,0.05,14,0)" xlink:href="#aq"/><use transform="matrix(0.05,0,0,0.05,26.950000000000003,0)" xlink:href="#aH"/><use transform="matrix(0.05,0,0,0.05,37.900000000000006,0)" xlink:href="#aR"/><use transform="matrix(0.05,0,0,0.05,43.85000000000001,0)" xlink:href="#aW"/></g><g id="A"><use transform="matrix(0.05,0,0,0.05,0,0)" xlink:href="#aN"/><use transform="matrix(0.05,0,0,0.05,5.95,0)" xlink:href="#aL"/><use transform="matrix(0.05,0,0,0.05,16.900000000000002,0)" xlink:href="#aY"/></g><g id="B"><use transform="matrix(0.05,0,0,0.05,0,0)" xlink:href="#aR"/><use transform="matrix(0.05,0,0,0.05,5.95,0)" xlink:href="#aW"/><use transform="matrix(0.05,0,0,0.05,16.900000000000002,0)" xlink:href="#aE"/><use transform="matrix(0.05,0,0,0.05,26.900000000000002,0)" xlink:href="#aR"/></g><g id="C"><use transform="matrix(0.05,0,0,0.05,0,0)" xlink:href="#at"/><use transform="matrix(0.05,0,0,0.05,12.950000000000001,0)" xlink:href="#az"/><use transform="matrix(0.05,0,0,0.05,25.900000000000002,0)" xlink:href="#ar"/></g><path fill="#333" d="M137-138c1-29-70-34-71-4 15 46 118 7 119 86 1 83-164 76-172 9l43-7c4 19 20 25 44 25 33 8 57-30 24-41C81-84 22-81 20-136c-2-80 154-74 161-7" id="ba"/><g id="D"><use transform="matrix(0.05,0,0,0.05,0,0)" xlink:href="#aq"/><use transform="matrix(0.05,0,0,0.05,12.950000000000001,0)" xlink:href="#ba"/><use transform="matrix(0.05,0,0,0.05,22.950000000000003,0)" xlink:href="#aS"/></g><g id="E"><use transform="matrix(0.05,0,0,0.05,0,0)" xlink:href="#aH"/><use transform="matrix(0.05,0,0,0.05,10.950000000000001,0)" xlink:href="#ba"/><use transform="matrix(0.05,0,0,0.05,20.950000000000003,0)" xlink:href="#aG"/><use transform="matrix(0.05,0,0,0.05,30.950000000000003,0)" xlink:href="#aY"/></g><g id="F"><use transform="matrix(0.05,0,0,0.05,0,0)" xlink:href="#at"/><use transform="matrix(0.05,0,0,0.05,12.950000000000001,0)" xlink:href="#az"/><use transform="matrix(0.05,0,0,0.05,25.900000000000002,0)" xlink:href="#ar"/></g><g id="G"><use transform="matrix(0.05,0,0,0.05,0,0)" xlink:href="#aL"/><use transform="matrix(0.05,0,0,0.05,10.950000000000001,0)" xlink:href="#aN"/></g><g id="H"><use transform="matrix(0.05,0,0,0.05,0,0)" xlink:href="#aR"/><use transform="matrix(0.05,0,0,0.05,5.95,0)" xlink:href="#aW"/><use transform="matrix(0.05,0,0,0.05,16.900000000000002,0)" xlink:href="#aG"/></g><g id="I"><use transform="matrix(0.05,0,0,0.05,0,0)" xlink:href="#av"/><use transform="matrix(0.05,0,0,0.05,12.950000000000001,0)" xlink:href="#aH"/><use transform="matrix(0.05,0,0,0.05,23.900000000000002,0)" xlink:href="#aI"/><use transform="matrix(0.05,0,0,0.05,28.900000000000002,0)" xlink:href="#aJ"/><use transform="matrix(0.05,0,0,0.05,33.900000000000006,0)" xlink:href="#aK"/></g><g id="J"><use transform="matrix(0.05,0,0,0.05,0,0)" xlink:href="#aG"/><use transform="matrix(0.05,0,0,0.05,10,0)" xlink:href="#aM"/><use transform="matrix(0.05,0,0,0.05,20.950000000000003,0)" xlink:href="#aF"/><use transform="matrix(0.05,0,0,0.05,30.950000000000003,0)" xlink:href="#aI"/><use transform="matrix(0.05,0,0,0.05,35.95,0)" xlink:href="#aY"/><use transform="matrix(0.05,0,0,0.05,42.95,0)" xlink:href="#aL"/><use transform="matrix(0.05,0,0,0.05,53.900000000000006,0)" xlink:href="#aM"/><use transform="matrix(0.05,0,0,0.05,64.85000000000001,0)" xlink:href="#aV"/><use transform="matrix(0.05,0,0,0.05,80.85000000000001,0)" xlink:href="#aG"/><use transform="matrix(0.05,0,0,0.05,90.85000000000001,0)" xlink:href="#aM"/><use transform="matrix(0.05,0,0,0.05,101.80000000000001,0)" xlink:href="#aR"/></g><g id="K"><use transform="matrix(0.05,0,0,0.05,0,0)" xlink:href="#ax"/><use transform="matrix(0.05,0,0,0.05,12,0)" xlink:href="#aG"/><use transform="matrix(0.05,0,0,0.05,22,0)" xlink:href="#aR"/></g><g id="L"><use transform="matrix(0.05,0,0,0.05,0,0)" xlink:href="#av"/><use transform="matrix(0.05,0,0,0.05,12.950000000000001,0)" xlink:href="#aH"/><use transform="matrix(0.05,0,0,0.05,23.900000000000002,0)" xlink:href="#aI"/><use transform="matrix(0.05,0,0,0.05,28.900000000000002,0)" xlink:href="#aJ"/><use transform="matrix(0.05,0,0,0.05,33.900000000000006,0)" xlink:href="#aK"/><use transform="matrix(0.05,0,0,0.05,44.85000000000001,0)" xlink:href="#aB"/><use transform="matrix(0.05,0,0,0.05,57.80000000000001,0)" xlink:href="#aL"/><use transform="matrix(0.05,0,0,0.05,68.75000000000001,0)" xlink:href="#aM"/><use transform="matrix(0.05,0,0,0.05,79.70000000000002,0)" xlink:href="#aN"/><use transform="matrix(0.05,0,0,0.05,85.65000000000002,0)" xlink:href="#aI"/><use transform="matrix(0.05,0,0,0.05,90.65000000000002,0)" xlink:href="#aO"/></g><path fill="#333" d="M231 0h-52l-39-155L100 0H48L-1-190h46L77-45c9-52 24-97 36-145h53l37 145 32-145h46" id="bb"/><g id="M"><use transform="matrix(0.05,0,0,0.05,0,0)" xlink:href="#bb"/><use transform="matrix(0.05,0,0,0.05,14,0)" xlink:href="#aI"/><use transform="matrix(0.05,0,0,0.05,19,0)" xlink:href="#aR"/><use transform="matrix(0.05,0,0,0.05,24.95,0)" xlink:href="#aW"/></g><g id="N"><use transform="matrix(0.05,0,0,0.05,0,0)" xlink:href="#aR"/><use transform="matrix(0.05,0,0,0.05,5.95,0)" xlink:href="#aL"/><use transform="matrix(0.05,0,0,0.05,16.900000000000002,0)" xlink:href="#aS"/><use transform="matrix(0.05,0,0,0.05,26.900000000000002,0)" xlink:href="#aG"/><use transform="matrix(0.05,0,0,0.05,36.900000000000006,0)" xlink:href="#aM"/></g><g id="O"><use transform="matrix(0.05,0,0,0.05,0,0)" xlink:href="#ax"/><use transform="matrix(0.05,0,0,0.05,12,0)" xlink:href="#aG"/><use transform="matrix(0.05,0,0,0.05,22,0)" xlink:href="#aM"/><use transform="matrix(0.05,0,0,0.05,32.95,0)" xlink:href="#aK"/></g><path fill="#333" d="M135-194c52 0 70 43 70 98 0 56-19 99-73 100-30 1-46-15-58-35L72 0H24l1-261h50v104c11-23 29-37 60-37zM114-30c31 0 40-27 40-66 0-37-7-63-39-63s-41 28-41 65c0 36 8 64 40 64" id="bc"/><g id="P"><use transform="matrix(0.05,0,0,0.05,0,0)" xlink:href="#bc"/><use transform="matrix(0.05,0,0,0.05,10.950000000000001,0)" xlink:href="#aE"/><use transform="matrix(0.05,0,0,0.05,20.950000000000003,0)" xlink:href="#aQ"/><use transform="matrix(0.05,0,0,0.05,30.950000000000003,0)" xlink:href="#aS"/></g><use transform="matrix(0.05,0,0,0.05,0,0)" xlink:href="#aE" id="Q"/><g id="R"><use transform="matrix(0.05,0,0,0.05,0,0)" xlink:href="#aB"/><use transform="matrix(0.05,0,0,0.05,12.950000000000001,0)" xlink:href="#aL"/><use transform="matrix(0.05,0,0,0.05,23.900000000000002,0)" xlink:href="#aM"/><use transform="matrix(0.05,0,0,0.05,34.85,0)" xlink:href="#aM"/><use transform="matrix(0.05,0,0,0.05,45.800000000000004,0)" xlink:href="#aG"/><use transform="matrix(0.05,0,0,0.05,55.800000000000004,0)" xlink:href="#aQ"/><use transform="matrix(0.05,0,0,0.05,65.80000000000001,0)" xlink:href="#aR"/></g><path fill="#333" d="M76-54c-1 42 2 86-19 110H24C36 42 46 24 48 0H25v-54h51" id="bd"/><g id="S"><use transform="matrix(0.05,0,0,0.05,0,0)" xlink:href="#at"/><use transform="matrix(0.05,0,0,0.05,12.950000000000001,0)" xlink:href="#az"/><use transform="matrix(0.05,0,0,0.05,25.900000000000002,0)" xlink:href="#ar"/><use transform="matrix(0.05,0,0,0.05,36.85,0)" xlink:href="#bd"/></g><g id="T"><use transform="matrix(0.05,0,0,0.05,0,0)" xlink:href="#aN"/><use transform="matrix(0.05,0,0,0.05,5.95,0)" xlink:href="#aH"/><use transform="matrix(0.05,0,0,0.05,16.900000000000002,0)" xlink:href="#aJ"/><use transform="matrix(0.05,0,0,0.05,21.900000000000002,0)" xlink:href="#aJ"/><use transform="matrix(0.05,0,0,0.05,26.900000000000002,0)" xlink:href="#aN"/><use transform="matrix(0.05,0,0,0.05,32.85,0)" xlink:href="#aI"/><use transform="matrix(0.05,0,0,0.05,37.85,0)" xlink:href="#aJ"/></g><g id="U"><use transform="matrix(0.05,0,0,0.05,0,0)" xlink:href="#aQ"/><use transform="matrix(0.05,0,0,0.05,10,0)" xlink:href="#aE"/><use transform="matrix(0.05,0,0,0.05,20,0)" xlink:href="#aJ"/><use transform="matrix(0.05,0,0,0.05,25,0)" xlink:href="#aJ"/></g><g id="V"><use transform="matrix(0.05,0,0,0.05,0,0)" xlink:href="#aP"/><use transform="matrix(0.05,0,0,0.05,5.95,0)" xlink:href="#aq"/><use transform="matrix(0.05,0,0,0.05,18.900000000000002,0)" xlink:href="#aH"/><use transform="matrix(0.05,0,0,0.05,29.85,0)" xlink:href="#aR"/><use transform="matrix(0.05,0,0,0.05,35.800000000000004,0)" xlink:href="#aW"/><use transform="matrix(0.05,0,0,0.05,46.75000000000001,0)" xlink:href="#aG"/><use transform="matrix(0.05,0,0,0.05,56.75,0)" xlink:href="#aM"/><use transform="matrix(0.05,0,0,0.05,67.7,0)" xlink:href="#aR"/><use transform="matrix(0.05,0,0,0.05,73.65,0)" xlink:href="#aI"/><use transform="matrix(0.05,0,0,0.05,78.65,0)" xlink:href="#aQ"/><use transform="matrix(0.05,0,0,0.05,88.65,0)" xlink:href="#aE"/><use transform="matrix(0.05,0,0,0.05,98.65,0)" xlink:href="#aR"/><use transform="matrix(0.05,0,0,0.05,104.60000000000001,0)" xlink:href="#aG"/></g><g id="W"><use transform="matrix(0.05,0,0,0.05,0,0)" xlink:href="#bb"/><use transform="matrix(0.05,0,0,0.05,14,0)" xlink:href="#aI"/><use transform="matrix(0.05,0,0,0.05,19,0)" xlink:href="#aR"/><use transform="matrix(0.05,0,0,0.05,24.95,0)" xlink:href="#aW"/></g><path fill="#333" d="M67-125c0 54 23 88 75 88 28 0 53-7 68-21v-34h-60v-39h108v91C232-14 192 4 140 4 58 4 20-42 15-125 8-236 126-280 215-234c19 10 29 26 37 47l-47 15c-11-23-29-39-63-39-53 1-75 33-75 86" id="be"/><g id="X"><use transform="matrix(0.05,0,0,0.05,0,0)" xlink:href="#be"/><use transform="matrix(0.05,0,0,0.05,14,0)" xlink:href="#aG"/><use transform="matrix(0.05,0,0,0.05,24,0)" xlink:href="#aR"/></g><use transform="matrix(0.05,0,0,0.05,0,0)" xlink:href="#aE" id="Y"/><g id="Z"><use transform="matrix(0.05,0,0,0.05,0,0)" xlink:href="#aY"/><use transform="matrix(0.05,0,0,0.05,7,0)" xlink:href="#aG"/><use transform="matrix(0.05,0,0,0.05,17,0)" xlink:href="#ba"/><use transform="matrix(0.05,0,0,0.05,27,0)" xlink:href="#aH"/><use transform="matrix(0.05,0,0,0.05,37.95,0)" xlink:href="#aJ"/><use transform="matrix(0.05,0,0,0.05,42.95,0)" xlink:href="#aR"/></g><g id="aa"><use transform="matrix(0.05,0,0,0.05,0,0)" xlink:href="#aq"/><use transform="matrix(0.05,0,0,0.05,12.950000000000001,0)" xlink:href="#aQ"/><use transform="matrix(0.05,0,0,0.05,22.950000000000003,0)" xlink:href="#aR"/><use transform="matrix(0.05,0,0,0.05,28.900000000000002,0)" xlink:href="#aI"/><use transform="matrix(0.05,0,0,0.05,33.900000000000006,0)" xlink:href="#aL"/><use transform="matrix(0.05,0,0,0.05,44.85000000000001,0)" xlink:href="#aM"/></g><g id="ab"><use transform="matrix(0.05,0,0,0.05,0,0)" xlink:href="#aB"/><use transform="matrix(0.05,0,0,0.05,12.950000000000001,0)" xlink:href="#aL"/><use transform="matrix(0.05,0,0,0.05,23.900000000000002,0)" xlink:href="#aM"/><use transform="matrix(0.05,0,0,0.05,34.85,0)" xlink:href="#aN"/><use transform="matrix(0.05,0,0,0.05,40.800000000000004,0)" xlink:href="#aI"/><use transform="matrix(0.05,0,0,0.05,45.800000000000004,0)" xlink:href="#aY"/><use transform="matrix(0.05,0,0,0.05,52.800000000000004,0)" xlink:href="#aV"/></g><path fill="#ce6925" d="M20 75v-336h95v34H67V41h48v34H20" id="bf"/><path fill="#ce6925" d="M25-224v-37h50v37H25zM25 0v-190h50V0H25" id="bg"/><path fill="#ce6925" d="M121-226c-27-7-43 5-38 36h38v33H83V0H34v-157H6v-33h28c-9-59 32-81 87-68v32" id="bh"/><g id="ac"><use transform="matrix(0.05,0,0,0.05,0,0)" xlink:href="#bf"/><use transform="matrix(0.05,0,0,0.05,5.95,0)" xlink:href="#bg"/><use transform="matrix(0.05,0,0,0.05,10.95,0)" xlink:href="#bh"/></g><path fill="#ce6925" d="M115-3C79 11 28 4 28-45v-112H4v-33h27l15-45h31v45h36v33H77v99c-1 23 16 31 38 25v30" id="bi"/><path fill="#ce6925" d="M110-194c64 0 96 36 96 99 0 64-35 99-97 99-61 0-95-36-95-99 0-62 34-99 96-99zm-1 164c35 0 45-28 45-65 0-40-10-65-43-65-34 0-45 26-45 65 0 36 10 65 43 65" id="bj"/><path fill="#ce6925" d="M147 0L96-86 75-71V0H25v-261h50v150l67-79h53l-66 74L201 0h-54" id="bk"/><path fill="#ce6925" d="M185-48c-13 30-37 53-82 52C43 2 14-33 14-96s30-98 90-98c62 0 83 45 84 108H66c0 31 8 55 39 56 18 0 30-7 34-22zm-45-69c5-46-57-63-70-21-2 6-4 13-4 21h74" id="bl"/><path fill="#ce6925" d="M135-194c87-1 58 113 63 194h-50c-7-57 23-157-34-157-59 0-34 97-39 157H25l-1-190h47c2 12-1 28 3 38 12-26 28-41 61-42" id="bm"/><g id="ad"><use transform="matrix(0.05,0,0,0.05,0,0)" xlink:href="#bi"/><use transform="matrix(0.05,0,0,0.05,5.95,0)" xlink:href="#bj"/><use transform="matrix(0.05,0,0,0.05,16.900000000000002,0)" xlink:href="#bk"/><use transform="matrix(0.05,0,0,0.05,26.900000000000002,0)" xlink:href="#bl"/><use transform="matrix(0.05,0,0,0.05,36.900000000000006,0)" xlink:href="#bm"/></g><path fill="#ce6925" d="M144 0l-44-69L55 0H2l70-98-66-92h53l41 62 40-62h54l-67 91 71 99h-54" id="bn"/><path fill="#ce6925" d="M135-194c53 0 70 44 70 98 0 56-19 98-73 100-31 1-45-17-59-34 3 33 2 69 2 105H25l-1-265h48c2 10 0 23 3 31 11-24 29-35 60-35zM114-30c33 0 39-31 40-66 0-38-9-64-40-64-56 0-55 130 0 130" id="bo"/><path fill="#ce6925" d="M135-150c-39-12-60 13-60 57V0H25l-1-190h47c2 13-1 29 3 40 6-28 27-53 61-41v41" id="bp"/><path fill="#ce6925" d="M88-194c31-1 46 15 58 34l-1-101h50l1 261h-48c-2-10 0-23-3-31C134-8 116 4 84 4 32 4 16-41 15-95c0-56 19-97 73-99zm17 164c33 0 40-30 41-66 1-37-9-64-41-64s-38 30-39 65c0 43 13 65 39 65" id="bq"/><path fill="#ce6925" d="M4 75V41h49v-268H4v-34h96V75H4" id="br"/><g id="ae"><use transform="matrix(0.05,0,0,0.05,0,0)" xlink:href="#bl"/><use transform="matrix(0.05,0,0,0.05,10,0)" xlink:href="#bn"/><use transform="matrix(0.05,0,0,0.05,20,0)" xlink:href="#bo"/><use transform="matrix(0.05,0,0,0.05,30.950000000000003,0)" xlink:href="#bg"/><use transform="matrix(0.05,0,0,0.05,35.95,0)" xlink:href="#bp"/><use transform="matrix(0.05,0,0,0.05,42.95,0)" xlink:href="#bl"/><use transform="matrix(0.05,0,0,0.05,52.95,0)" xlink:href="#bq"/><use transform="matrix(0.05,0,0,0.05,63.900000000000006,0)" xlink:href="#br"/></g><g id="af"><use transform="matrix(0.05,0,0,0.05,0,0)" xlink:href="#aB"/><use transform="matrix(0.05,0,0,0.05,12.950000000000001,0)" xlink:href="#aW"/><use transform="matrix(0.05,0,0,0.05,23.900000000000002,0)" xlink:href="#aG"/><use transform="matrix(0.05,0,0,0.05,33.900000000000006,0)" xlink:href="#aQ"/><use transform="matrix(0.05,0,0,0.05,43.900000000000006,0)" xlink:href="#aS"/></g><g id="ag"><use transform="matrix(0.05,0,0,0.05,0,0)" xlink:href="#bc"/><use transform="matrix(0.05,0,0,0.05,10.950000000000001,0)" xlink:href="#aH"/><use transform="matrix(0.05,0,0,0.05,21.900000000000002,0)" xlink:href="#aI"/><use transform="matrix(0.05,0,0,0.05,26.900000000000002,0)" xlink:href="#aJ"/><use transform="matrix(0.05,0,0,0.05,31.900000000000002,0)" xlink:href="#aK"/></g><path fill="#333" d="M24 0v-54h51V0H24" id="bs"/><g id="ah"><use transform="matrix(0.05,0,0,0.05,0,0)" xlink:href="#aG"/><use transform="matrix(0.05,0,0,0.05,10,0)" xlink:href="#aM"/><use transform="matrix(0.05,0,0,0.05,20.950000000000003,0)" xlink:href="#aF"/><use transform="matrix(0.05,0,0,0.05,29.6,0)" xlink:href="#bs"/></g><g id="ai"><use transform="matrix(0.05,0,0,0.05,0,0)" xlink:href="#aR"/><use transform="matrix(0.05,0,0,0.05,5.95,0)" xlink:href="#aL"/><use transform="matrix(0.05,0,0,0.05,16.900000000000002,0)" xlink:href="#aS"/><use transform="matrix(0.05,0,0,0.05,26.900000000000002,0)" xlink:href="#aG"/><use transform="matrix(0.05,0,0,0.05,36.900000000000006,0)" xlink:href="#aM"/></g><path fill="#333" d="M144 0l-44-69L55 0H2l70-98-66-92h53l41 62 40-62h54l-67 91 71 99h-54" id="bt"/><g id="aj"><use transform="matrix(0.05,0,0,0.05,0,0)" xlink:href="#aG"/><use transform="matrix(0.05,0,0,0.05,10,0)" xlink:href="#bt"/><use transform="matrix(0.05,0,0,0.05,20,0)" xlink:href="#aX"/><use transform="matrix(0.05,0,0,0.05,30.950000000000003,0)" xlink:href="#aI"/><use transform="matrix(0.05,0,0,0.05,35.95,0)" xlink:href="#aY"/><use transform="matrix(0.05,0,0,0.05,42.95,0)" xlink:href="#aE"/><use transform="matrix(0.05,0,0,0.05,52.95,0)" xlink:href="#aR"/><use transform="matrix(0.05,0,0,0.05,58.900000000000006,0)" xlink:href="#aI"/><use transform="matrix(0.05,0,0,0.05,63.900000000000006,0)" xlink:href="#aL"/><use transform="matrix(0.05,0,0,0.05,74.85000000000001,0)" xlink:href="#aM"/></g><g id="ak"><use transform="matrix(0.05,0,0,0.05,0,0)" xlink:href="#aP"/><use transform="matrix(0.05,0,0,0.05,5.95,0)" xlink:href="#aE"/><use transform="matrix(0.05,0,0,0.05,15.949999999999998,0)" xlink:href="#aM"/><use transform="matrix(0.05,0,0,0.05,26.899999999999995,0)" xlink:href="#aK"/></g><g id="al"><use transform="matrix(0.05,0,0,0.05,0,0)" xlink:href="#ba"/><use transform="matrix(0.05,0,0,0.05,10,0)" xlink:href="#aG"/><use transform="matrix(0.05,0,0,0.05,20,0)" xlink:href="#aQ"/><use transform="matrix(0.05,0,0,0.05,30,0)" xlink:href="#aY"/><use transform="matrix(0.05,0,0,0.05,37,0)" xlink:href="#aG"/><use transform="matrix(0.05,0,0,0.05,47,0)" xlink:href="#aR"/><use transform="matrix(0.05,0,0,0.05,52.95,0)" xlink:href="#ba"/></g><g id="am"><use transform="matrix(0.05,0,0,0.05,0,0)" xlink:href="#bb"/><use transform="matrix(0.05,0,0,0.05,14,0)" xlink:href="#aW"/><use transform="matrix(0.05,0,0,0.05,24.950000000000003,0)" xlink:href="#aG"/><use transform="matrix(0.05,0,0,0.05,34.95,0)" xlink:href="#aY"/><use transform="matrix(0.05,0,0,0.05,41.95,0)" xlink:href="#aG"/></g><path fill="#333" d="M123 10C108 53 80 86 19 72V37c35 8 53-11 59-39L3-190h52l48 148c12-52 28-100 44-148h51" id="bu"/><path fill="#333" d="M15-148v-39h180v39H15zm0 97v-39h180v39H15" id="bv"/><path fill="#333" d="M142-158h-39l-4-90h48zm-75 0H28l-4-90h48" id="bw"/><g id="an"><use transform="matrix(0.05,0,0,0.05,0,0)" xlink:href="#aR"/><use transform="matrix(0.05,0,0,0.05,5.95,0)" xlink:href="#bu"/><use transform="matrix(0.05,0,0,0.05,15.949999999999998,0)" xlink:href="#aX"/><use transform="matrix(0.05,0,0,0.05,26.899999999999995,0)" xlink:href="#aG"/><use transform="matrix(0.05,0,0,0.05,36.9,0)" xlink:href="#bv"/><use transform="matrix(0.05,0,0,0.05,47.4,0)" xlink:href="#bv"/><use transform="matrix(0.05,0,0,0.05,57.900000000000006,0)" xlink:href="#bw"/><use transform="matrix(0.05,0,0,0.05,66.4,0)" xlink:href="#aR"/><use transform="matrix(0.05,0,0,0.05,72.35000000000001,0)" xlink:href="#aL"/><use transform="matrix(0.05,0,0,0.05,83.30000000000001,0)" xlink:href="#aS"/><use transform="matrix(0.05,0,0,0.05,93.30000000000001,0)" xlink:href="#aG"/><use transform="matrix(0.05,0,0,0.05,103.30000000000001,0)" xlink:href="#aM"/><use transform="matrix(0.05,0,0,0.05,114.25,0)" xlink:href="#bw"/><use transform="matrix(0.05,0,0,0.05,122.75,0)" xlink:href="#aT"/></g><path fill="#ce6925" d="M87 75C49 33 22-17 22-94c0-76 28-126 65-167h31c-38 41-64 92-64 168S80 34 118 75H87" id="bx"/><path fill="#ce6925" d="M117-194c89-4 53 116 60 194h-32v-121c0-31-8-49-39-48C34-167 62-67 57 0H25l-1-190h30c1 10-1 24 2 32 11-22 29-35 61-36" id="by"/><path fill="#ce6925" d="M100-194c63 0 86 42 84 106H49c0 40 14 67 53 68 26 1 43-12 49-29l28 8c-11 28-37 45-77 45C44 4 14-33 15-96c1-61 26-98 85-98zm52 81c6-60-76-77-97-28-3 7-6 17-6 28h103" id="bz"/><path fill="#ce6925" d="M206 0h-36l-40-164L89 0H53L-1-190h32L70-26l43-164h34l41 164 42-164h31" id="bA"/><g id="ao"><use transform="matrix(0.05,0,0,0.05,0,0)" xlink:href="#bx"/><use transform="matrix(0.05,0,0,0.05,5.95,0)" xlink:href="#by"/><use transform="matrix(0.05,0,0,0.05,15.949999999999998,0)" xlink:href="#bz"/><use transform="matrix(0.05,0,0,0.05,25.950000000000003,0)" xlink:href="#bA"/></g><path fill="#ce6925" d="M101-234c-31-9-42 10-38 44h38v23H63V0H32v-167H5v-23h27c-7-52 17-82 69-68v24" id="bB"/><path fill="#ce6925" d="M24 0v-261h32V0H24" id="bC"/><path fill="#ce6925" d="M100-194c62-1 85 37 85 99 1 63-27 99-86 99S16-35 15-95c0-66 28-99 85-99zM99-20c44 1 53-31 53-75 0-43-8-75-51-75s-53 32-53 75 10 74 51 75" id="bD"/><path fill="#ce6925" d="M33-261c38 41 65 92 65 168S71 34 33 75H2C39 34 66-17 66-93S39-220 2-261h31" id="bE"/><g id="ap"><use transform="matrix(0.05,0,0,0.05,0,0)" xlink:href="#bB"/><use transform="matrix(0.05,0,0,0.05,5,0)" xlink:href="#bC"/><use transform="matrix(0.05,0,0,0.05,8.95,0)" xlink:href="#bD"/><use transform="matrix(0.05,0,0,0.05,18.95,0)" xlink:href="#bA"/><use transform="matrix(0.05,0,0,0.05,31.899999999999995,0)" xlink:href="#bE"/></g></defs></g></svg>